<svg width="30" height="40" viewBox="0 0 30 40" fill="none" xmlns="http://www.w3.org/2000/svg">
<path id="Vector" fill-rule="evenodd" clip-rule="evenodd" d="M9.375 0C10.3917 11.9816 0 16.1066 0 26.6598C0 33.8281 5.115 39.9464 15 39.9997C24.885 40.053 30 32.6431 30 25.0732C30 18.1715 26.5633 11.6632 20.08 7.61661C21.62 11.9616 19.57 15.9299 17.5783 17.2965C17.695 11.7349 15.7033 3.48164 9.375 0ZM17.2267 21.6665C23.485 28.3148 19.6417 36.6664 14.615 36.6664C11.5567 36.6664 9.98333 34.5581 10 32.3714C10.0317 28.3165 14.5617 28.3131 17.2267 21.6665Z" fill="#FFCC3C"/>
</svg>
