<svg width="182" height="182" viewBox="0 0 182 182" fill="none" xmlns="http://www.w3.org/2000/svg">
<path d="M3.98135 108.155C3.68706 99.5321 11.1552 92.6119 18.8397 88.6781C26.5264 84.7524 35.2171 82.3598 41.5541 76.5015C47.8911 70.6433 50.5408 59.3827 44.041 53.7127C38.5131 48.8966 30.1448 50.7489 22.8332 50.1748C10.8867 49.2353 -0.587152 38.8616 0.344294 26.9173C0.677677 22.6518 2.47571 18.5952 4.88493 15.0659C17.8906 -4.00175 50.4176 -4.53487 64.041 14.0947C67.767 19.186 70.1571 25.2469 74.4485 29.8718C78.7479 34.4945 86.102 37.327 91.3861 33.877C101.17 27.4925 92.2735 11.2501 97.4798 0.788554C108.236 7.37895 116.739 17.5695 121.287 29.3309C123.605 35.3159 125.064 41.9221 129.441 46.6106C139.175 57.0368 156.324 52.2523 169.472 46.73C176.029 65.5893 175.41 86.8478 167.77 105.298C161.807 119.689 151.621 135.481 158.55 149.437C164.263 160.919 180.36 166.829 181.102 179.65C159.76 186.867 133.937 169.479 132.6 146.989C132.103 138.677 134.437 130.44 134.443 122.108C134.448 113.777 131.23 104.46 123.55 101.24C115.727 97.9636 106.558 102.528 101.103 109.031C95.6492 115.535 92.7015 123.727 88.3049 130.985C75.9679 151.355 62.3295 145.771 48.377 133.322C42.3709 127.961 4.16023 113.455 3.97925 108.147L3.98135 108.155Z" fill="#CC9D19"/>
</svg>
