<svg width="174" height="188" viewBox="0 0 174 188" fill="none" xmlns="http://www.w3.org/2000/svg">
<path d="M173.858 81.5294C173.751 90.1562 165.969 96.7213 158.109 100.293C150.248 103.857 141.456 105.842 134.853 111.399C128.25 116.956 125.079 128.081 131.308 134.047C136.606 139.116 145.051 137.655 152.328 138.569C164.218 140.063 175.196 150.96 173.71 162.848C173.178 167.093 171.193 171.062 168.623 174.475C154.743 192.917 122.227 191.935 109.485 172.692C106 167.432 103.895 161.267 99.8236 156.447C95.744 151.629 88.5297 148.458 83.0907 151.658C73.0205 157.58 81.1511 174.219 75.4635 184.427C65.0259 177.343 57.0065 166.768 53.0108 154.807C50.9733 148.721 49.8237 142.054 45.6699 137.167C36.4319 126.299 19.0781 130.28 5.68765 135.184C0.0155644 116.04 1.62343 94.8333 10.114 76.7586C16.7405 62.6607 27.6507 47.3604 21.3784 33.0968C16.2065 21.3617 0.40237 14.708 0.257291 1.86699C21.9125 -4.34906 46.8978 14.2221 47.1871 36.75C47.2961 45.0757 44.581 53.1958 44.1877 61.5181C43.7943 69.8403 46.5759 79.2965 54.097 82.8704C61.7592 86.5077 71.1313 82.3752 76.8823 76.1328C82.6333 69.8903 85.9591 61.8439 90.6888 54.799C103.961 35.0247 117.324 41.2381 130.682 54.3223C136.432 59.9572 173.926 76.2266 173.86 81.5375L173.858 81.5294Z" fill="#CC9D19"/>
</svg>
